<?xml version="1.0" encoding="UTF-8"?>
<svg viewBox="0 0 1024 1024" xmlns="http://www.w3.org/2000/svg">
  <defs>
    <linearGradient id="bg" x1="0" y1="0" x2="0" y2="1">
      <stop offset="0" stop-color="#2a3040"/>
      <stop offset="1" stop-color="#141822"/>
    </linearGradient>
    <linearGradient id="arc" x1="0" y1="1" x2="1" y2="1">
      <stop offset="0" stop-color="#3ddc84"/>
      <stop offset="1" stop-color="#ffc24b"/>
    </linearGradient>
  </defs>

  <rect width="1024" height="1024" fill="url(#bg)"/>

  <!-- 270°-Tacho-Ring: Start unten links, über oben nach unten rechts -->
  <path d="M 285.7 738.3 A 320 320 0 1 1 738.3 738.3"
        fill="none" stroke="url(#arc)" stroke-width="72" stroke-linecap="round"/>

  <!-- Eichgewicht mit ausgestanztem Blitz -->
  <g transform="translate(512,535) scale(4.6) translate(-50,-50)">
    <path fill="#f5f7fa" fill-rule="evenodd" d="
      M44 14 H56 Q61 14 61 19 V30 H39 V19 Q39 14 44 14 Z
      M33 32 H67 Q71 32 72 36 L85 78 Q87 86 79 86 H21 Q13 86 15 78 L28 36 Q29 32 33 32 Z
      M55.9 42.5 L42.5 61.25 h6.6 l-4.25 14.25 L59.8 55.6 h-6.95 Z"/>
  </g>
</svg>
